<svg fill="none" height="30" viewBox="0 0 31 30" width="31" xmlns="http://www.w3.org/2000/svg" xmlns:xlink="http://www.w3.org/1999/xlink"><filter id="a" color-interpolation-filters="sRGB" filterUnits="userSpaceOnUse" height="37.9999" width="36.3892" x="-2.69482" y="0"><feFlood flood-opacity="0" result="BackgroundImageFix"/><feColorMatrix in="SourceAlpha" result="hardAlpha" type="matrix" values="0 0 0 0 0 0 0 0 0 0 0 0 0 0 0 0 0 0 127 0"/><feOffset dy="4"/><feGaussianBlur stdDeviation="2"/><feComposite in2="hardAlpha" operator="out"/><feColorMatrix type="matrix" values="0 0 0 0 0 0 0 0 0 0 0 0 0 0 0 0 0 0 0.25 0"/><feBlend in2="BackgroundImageFix" mode="normal" result="effect1_dropShadow_2275_1588"/><feBlend in="SourceGraphic" in2="effect1_dropShadow_2275_1588" mode="normal" result="shape"/></filter><g fill="#fff" filter="url(#a)"><path d="m2.62772 16.4507h21.43148c3.1072 0 5.6349-2.5279 5.6349-5.6349 0-3.10252-2.5204-5.62747-5.6214-5.63483-.3055-.0046-2.289.02285-3.7702 1.46701-.9924.9675-1.4954 2.29692-1.4954 3.95112 0 .7305.592 1.3226 1.3225 1.3226s1.3225-.5922 1.3225-1.3226c0-.90597.2302-1.59391.6841-2.04455.7073-.70245 1.8076-.72774 1.8955-.72862.0124.00039.0108.00019.0275.00019 1.6486 0 2.9898 1.34118 2.9898 2.98968 0 1.6486-1.3411 2.9897-2.9898 2.9897h-21.43148c-.73044 0-1.32254.5922-1.32254 1.3226s.5921 1.3226 1.32254 1.3226z"/><path d="m2.62772 11.27h10.21538c3.107 0 5.6348-2.52786 5.6348-5.63492 0-3.10269-2.5204-5.6277433-5.6215-5.63480213-.3091-.00431372-2.2895.02323533-3.77029 1.46701213-.99226.9676-1.4954 2.29701-1.4954 3.95122 0 .73044.59206 1.32265 1.32255 1.32265s1.32244-.59216 1.32244-1.32265c0-.90598.2303-1.59392.6841-2.04456.7072-.70235 1.8075-.72784 1.8958-.72872.0123.00039.0107.00019.0274.00019 1.6485 0 2.9898 1.34118 2.9898 2.98966 0 1.64858-1.3412 2.98976-2.9898 2.98976h-10.21528c-.73044 0-1.32254.59215-1.32254 1.32264 0 .73052.5921 1.32252 1.32254 1.32252z"/><path d="m24.0592 18.73h-21.43148c-.73044 0-1.32254.5921-1.32254 1.3225s.59205 1.3226 1.32254 1.3226h21.43148c1.6486 0 2.9899 1.3412 2.9899 2.9896 0 1.6486-1.3412 2.9898-2.9899 2.9898-.0166 0-.0151-.0003-.0274.0002-.0881-.0009-1.1884-.0263-1.8956-.7286-.4538-.4507-.6841-1.1386-.6841-2.0447 0-.7304-.592-1.3226-1.3224-1.3226-.7305 0-1.3226.5921-1.3226 1.3226 0 1.6543.5031 2.9837 1.4954 3.9512 1.4215 1.3862 3.3043 1.4674 3.7252 1.4673.0177 0 .0327-.0001.0451-.0003 3.101-.0073 5.6214-2.5323 5.6214-5.6348 0-3.1071-2.5278-5.6348-5.635-5.6348z"/></g></svg>