<svg fill="none" height="38" viewBox="0 0 30 38" width="30" xmlns="http://www.w3.org/2000/svg" xmlns:xlink="http://www.w3.org/1999/xlink"><filter id="a" color-interpolation-filters="sRGB" filterUnits="userSpaceOnUse" height="38" width="38" x="-4" y="0"><feFlood flood-opacity="0" result="BackgroundImageFix"/><feColorMatrix in="SourceAlpha" result="hardAlpha" type="matrix" values="0 0 0 0 0 0 0 0 0 0 0 0 0 0 0 0 0 0 127 0"/><feOffset dy="4"/><feGaussianBlur stdDeviation="2"/><feComposite in2="hardAlpha" operator="out"/><feColorMatrix type="matrix" values="0 0 0 0 0 0 0 0 0 0 0 0 0 0 0 0 0 0 0.25 0"/><feBlend in2="BackgroundImageFix" mode="normal" result="effect1_dropShadow_2275_1598"/><feBlend in="SourceGraphic" in2="effect1_dropShadow_2275_1598" mode="normal" result="shape"/></filter><g fill="#fff" filter="url(#a)"><path d="m20.5 16.9097v-11.90972c0-2.76141-2.2386-4.99998-5-4.99998s-5 2.23857-5 4.99998v11.90972c-1.53437 1.3733-2.5 3.3691-2.5 5.5903 0 4.1422 3.3579 7.5 7.5 7.5s7.5-3.3578 7.5-7.5c0-2.2212-.9656-4.217-2.5-5.5903zm-5 10.5903c-2.7614 0-5-2.2386-5-5 0-1.4436.6118-2.7827 1.6673-3.7274l.8327-.7454v-13.02722c0-1.3807 1.1194-2.50002 2.5001-2.50002s2.5 1.11926 2.5 2.50002v13.02722l.8327.7454c1.0555.9447 1.6673 2.2838 1.6673 3.7274-.0001 2.7614-2.2387 5-5.0001 5z"/><path d="m16.4375 19.6875v-14.0625c0-.51777-.4197-.9375-.9375-.9375s-.9375.41973-.9375.9375v14.0625z"/><path d="m15.5 26.25c2.0711 0 3.75-1.6789 3.75-3.75s-1.6789-3.75-3.75-3.75-3.75 1.6789-3.75 3.75 1.6789 3.75 3.75 3.75z"/></g></svg>