<svg fill="none" height="38" viewBox="0 0 31 38" width="31" xmlns="http://www.w3.org/2000/svg" xmlns:xlink="http://www.w3.org/1999/xlink"><filter id="a" color-interpolation-filters="sRGB" filterUnits="userSpaceOnUse" height="38" width="38" x="-3.5" y="0"><feFlood flood-opacity="0" result="BackgroundImageFix"/><feColorMatrix in="SourceAlpha" result="hardAlpha" type="matrix" values="0 0 0 0 0 0 0 0 0 0 0 0 0 0 0 0 0 0 127 0"/><feOffset dy="4"/><feGaussianBlur stdDeviation="2"/><feComposite in2="hardAlpha" operator="out"/><feColorMatrix type="matrix" values="0 0 0 0 0 0 0 0 0 0 0 0 0 0 0 0 0 0 0.25 0"/><feBlend in2="BackgroundImageFix" mode="normal" result="effect1_dropShadow_2275_1575"/><feBlend in="SourceGraphic" in2="effect1_dropShadow_2275_1575" mode="normal" result="shape"/></filter><clipPath id="b"><path d="m.5 0h30v30h-30z"/></clipPath><g clip-path="url(#b)" fill="#fff" filter="url(#a)"><path d="m16.5125.516875c-.235-.324375-.6119-.516875-1.0125-.516875s-.7775.1925-1.0125.516875c-.9837 1.358745-9.6125 13.431825-9.6125 18.858125 0 5.8587 4.76625 10.625 10.625 10.625 5.8588 0 10.625-4.7663 10.625-10.625 0-5.4263-8.6287-17.49938-9.6125-18.858125zm-1.0125 26.983125c-4.48 0-8.125-3.645-8.125-8.125 0-3.4663 5.1769-11.685 8.125-15.95625 2.9481 4.27125 8.125 12.48995 8.125 15.95625 0 4.48-3.645 8.125-8.125 8.125z"/><path d="m15.5 23.125c-2.0681 0-3.75-1.6819-3.75-3.75 0-.69-.56-1.25-1.25-1.25s-1.25.56-1.25 1.25c0 3.4463 2.8038 6.25 6.25 6.25.69 0 1.25-.56 1.25-1.25s-.56-1.25-1.25-1.25z"/></g></svg>